<?xml version="1.0" encoding="UTF-8"?>
<svg id="Calque_8" data-name="Calque 8" xmlns="http://www.w3.org/2000/svg" viewBox="0 0 153.32 68.43">
  <defs>
    <style>
      .cls-1 {
        fill: #fff;
        stroke-width: 0px;
      }
    </style>
  </defs>
  <path class="cls-1" d="m146.37,38.58c-14.56-6.75-36.7-10.5-61.3-9.4-18.56.83-35.49,4.3-48.67,9.4,14.35-6.2,33.64-10.46,54.99-11.42,6.13-.28,12.1-.27,17.87,0,8.45.4,16.79,2.02,24.62,5.07,4.1,1.59,8.36,3.66,12.49,6.35Z"/>
  <g>
    <path class="cls-1" d="m12.87,25.39c-1.64-.95-2.93-2.26-3.88-3.92-.95-1.66-1.43-3.5-1.43-5.53s.48-3.87,1.43-5.53c.95-1.66,2.24-2.97,3.88-3.92,1.64-.95,3.45-1.43,5.43-1.43s3.79.48,5.43,1.43c1.64.95,2.93,2.26,3.88,3.92.95,1.66,1.42,3.5,1.42,5.53s-.48,3.87-1.42,5.53c-.95,1.66-2.24,2.97-3.88,3.92-1.64.95-3.45,1.43-5.43,1.43s-3.79-.48-5.43-1.43Zm8.7-3.23c1-.59,1.8-1.43,2.39-2.51.6-1.08.89-2.32.89-3.71s-.3-2.62-.89-3.71c-.6-1.08-1.39-1.92-2.39-2.51-1-.59-2.09-.89-3.27-.89s-2.27.3-3.28.89c-1,.59-1.8,1.43-2.4,2.51-.6,1.08-.89,2.32-.89,3.71s.3,2.62.89,3.71c.6,1.08,1.4,1.92,2.4,2.51,1,.59,2.1.89,3.28.89s2.27-.3,3.27-.89Z"/>
    <path class="cls-1" d="m46.63,4.75v21.78h-4.06v-2.11c-.46.66-1.1,1.23-1.92,1.7-.82.47-1.77.71-2.85.71-1.19,0-2.31-.31-3.37-.92s-1.9-1.52-2.55-2.72c-.65-1.21-.97-2.66-.97-4.36s.32-3.16.97-4.37c.65-1.21,1.5-2.12,2.55-2.73s2.18-.92,3.37-.92c1.08,0,2.03.24,2.85.72.82.48,1.46,1.05,1.92,1.7V4.75h4.06Zm-4.06,13.98c0-.83-.17-1.58-.5-2.27-.34-.68-.79-1.22-1.37-1.62-.58-.39-1.21-.59-1.91-.59s-1.38.2-1.96.6-1.02.94-1.34,1.64c-.32.69-.48,1.47-.48,2.33s.16,1.63.48,2.33c.32.69.77,1.24,1.34,1.64s1.23.6,1.96.6,1.34-.2,1.91-.59c.58-.39,1.03-.93,1.37-1.62.33-.68.5-1.44.5-2.27v-.18Z"/>
    <path class="cls-1" d="m61.46,11.12l-4.06,10.15-4.05-10.15h-4.33l6.3,14.99c-.36.73-.8,1.24-1.33,1.56-.53.33-1.22.49-2.05.49h-1.59v1.81c2.68-.73,5.44-1.39,8.28-1.99.21-.41.41-.86.62-1.35l6.54-15.51h-4.33Z"/>
    <path class="cls-1" d="m78.54,19.52c-.46-.63-1.03-1.12-1.73-1.46-.7-.34-1.51-.64-2.46-.89l-1.14-.3c-.44-.12-.8-.23-1.07-.33-.27-.11-.49-.25-.68-.44-.2-.18-.28-.42-.28-.7,0-.41.18-.73.55-.97.38-.23.91-.36,1.6-.36s1.34.11,2.03.33,1.33.49,1.93.81l1.29-3.26c-.65-.32-1.43-.59-2.35-.81s-1.88-.34-2.88-.34c-1.18,0-2.24.18-3.15.54-.91.34-1.62.89-2.13,1.6-.5.71-.76,1.6-.76,2.64s.25,1.89.73,2.53c.48.63,1.05,1.08,1.67,1.37.64.27,1.38.53,2.23.74l1.05.27c.75.18,1.34.39,1.77.63.44.23.65.57.65,1.02,0,.38-.17.68-.52.92-.34.23-.85.36-1.54.36-.79,0-1.62-.17-2.48-.49-.86-.33-1.64-.71-2.32-1.16l-1.48,3.37c.59.37,1.28.69,2.07.97,2.95-.44,5.97-.81,9.03-1.11.14-.15.25-.31.36-.47.48-.74.71-1.59.71-2.57s-.23-1.81-.69-2.45Z"/>
    <path class="cls-1" d="m92.58,19.52c-.46-.63-1.03-1.12-1.73-1.46-.7-.34-1.53-.64-2.47-.89l-1.13-.3c-.44-.12-.8-.23-1.07-.33-.27-.11-.5-.25-.69-.44-.18-.18-.28-.42-.28-.7,0-.41.18-.73.57-.97.37-.23.9-.36,1.6-.36.66,0,1.34.11,2.03.33.68.22,1.32.49,1.92.81l1.3-3.26c-.65-.32-1.44-.59-2.36-.81-.91-.22-1.87-.34-2.87-.34-1.19,0-2.24.18-3.15.54-.91.34-1.62.89-2.13,1.6-.5.71-.76,1.6-.76,2.64s.25,1.89.73,2.53c.48.63,1.03,1.08,1.67,1.37.64.27,1.38.53,2.23.74l1.05.27c.75.18,1.34.39,1.77.63.43.23.65.57.65,1.02,0,.38-.17.68-.52.92-.34.23-.86.36-1.54.36-.8,0-1.62-.17-2.48-.49-.86-.33-1.64-.71-2.32-1.16l-1.29,2.95c3.75-.3,7.58-.49,11.48-.59.34-.64.5-1.35.5-2.16,0-1-.23-1.81-.69-2.45Z"/>
    <path class="cls-1" d="m102.75,4.76l-1.89,4.55h3.71l1.91-4.55h-3.73Zm7.13,14.35c0-1.53-.27-2.92-.84-4.18-.55-1.25-1.38-2.26-2.48-3-1.11-.75-2.44-1.13-3.99-1.13s-2.93.38-4.07,1.12c-1.16.74-2.03,1.72-2.64,2.95-.6,1.22-.9,2.52-.9,3.92s.31,2.73.95,3.96c.25.48.54.92.89,1.33h.62c4.02,0,7.98.12,11.87.36.04-.02.06-.06.09-.09l-2.4-2.58c-.44.46-1.01.85-1.69,1.18-.68.32-1.43.49-2.26.49-1.06,0-1.94-.28-2.64-.86-.71-.57-1.17-1.37-1.4-2.37h10.91v-1.09Zm-10.92-1.71c.2-1.01.6-1.83,1.23-2.46.62-.63,1.4-.93,2.36-.93s1.75.31,2.32.95c.58.63.95,1.44,1.09,2.45h-7.01Z"/>
    <path class="cls-1" d="m126.8,19.11c0-1.53-.28-2.92-.84-4.18-.55-1.25-1.39-2.26-2.48-3-1.11-.75-2.44-1.13-4-1.13s-2.92.38-4.07,1.12c-1.16.74-2.03,1.72-2.63,2.95-.6,1.22-.91,2.52-.91,3.92s.32,2.73.95,3.96c.41.78.92,1.46,1.56,2.04,3.31.28,6.57.64,9.75,1.09.89-.44,1.61-.96,2.15-1.54l-2.41-2.58c-.44.46-1.01.85-1.67,1.18-.68.32-1.44.49-2.28.49-1.06,0-1.94-.28-2.64-.86-.7-.57-1.17-1.37-1.39-2.37h10.91v-1.09Zm-10.93-1.71c.2-1.01.62-1.83,1.23-2.46s1.4-.93,2.36-.93,1.75.31,2.34.95c.58.63.93,1.44,1.08,2.45h-7.01Z"/>
  </g>
  <g>
    <path class="cls-1" d="m12.74,57.55c-1.6-.96-2.86-2.27-3.76-3.93-.91-1.66-1.36-3.5-1.36-5.51s.45-3.86,1.36-5.51c.91-1.66,2.16-2.97,3.76-3.93,1.6-.96,3.41-1.44,5.4-1.44,1.26,0,2.41.18,3.45.55s1.92.81,2.62,1.34,1.27,1.04,1.69,1.55l-1.85,1.67c-.61-.77-1.41-1.43-2.39-1.99-.98-.56-2.16-.84-3.53-.84-1.53,0-2.9.37-4.11,1.12-1.22.75-2.17,1.78-2.85,3.09-.68,1.31-1.03,2.78-1.03,4.4s.34,3.09,1.03,4.41c.69,1.31,1.64,2.34,2.85,3.09s2.58,1.12,4.1,1.12c1.37,0,2.54-.28,3.53-.85.98-.57,1.78-1.23,2.39-2l1.85,1.67c-.42.51-.99,1.03-1.69,1.55-.7.52-1.58.97-2.62,1.34s-2.19.55-3.45.55c-2,0-3.8-.48-5.4-1.44Z"/>
    <path class="cls-1" d="m31.65,57.94c-1.13-.7-2.01-1.66-2.64-2.87-.62-1.21-.94-2.58-.94-4.08s.31-2.87.94-4.09c.62-1.22,1.51-2.18,2.64-2.88,1.14-.7,2.43-1.05,3.89-1.05s2.75.35,3.89,1.05c1.14.7,2.02,1.66,2.64,2.88.62,1.22.94,2.58.94,4.09s-.31,2.87-.94,4.08c-.63,1.22-1.5,2.17-2.64,2.87s-2.43,1.05-3.9,1.05-2.77-.35-3.9-1.05Zm6.52-1.87c.75-.5,1.34-1.19,1.75-2.07s.62-1.89.62-3.01-.21-2.13-.62-3.02c-.41-.89-1-1.58-1.75-2.08s-1.63-.75-2.62-.75-1.87.25-2.62.75-1.34,1.19-1.75,2.08c-.41.89-.62,1.9-.62,3.02s.21,2.13.62,3.01c.41.89,1,1.58,1.75,2.07.75.5,1.63.75,2.62.75s1.87-.25,2.62-.75Z"/>
    <path class="cls-1" d="m47.9,58.39c-.97-.4-1.78-.86-2.41-1.4l1.27-1.93c.58.49,1.26.91,2.05,1.25.79.34,1.61.51,2.48.51.64,0,1.19-.1,1.65-.31.46-.21.81-.48,1.05-.83.24-.35.36-.75.36-1.19s-.13-.85-.38-1.15c-.26-.3-.59-.55-1-.74-.41-.19-.93-.37-1.56-.56l-1.39-.41c-.84-.26-1.53-.52-2.09-.79-.56-.27-1.04-.68-1.45-1.24-.41-.56-.61-1.29-.61-2.21,0-.96.24-1.78.71-2.44.47-.66,1.11-1.16,1.93-1.48.81-.33,1.72-.49,2.72-.49s1.94.15,2.76.45,1.48.64,1.99,1.03l-1.24,1.98c-.46-.35-1.01-.66-1.63-.92s-1.32-.39-2.09-.39c-.91,0-1.63.2-2.16.6s-.8.92-.8,1.57c0,.42.12.77.35,1.03.23.26.53.46.89.61.36.15.88.33,1.57.55l1.4.43c.82.25,1.51.51,2.08.79s1.08.72,1.52,1.33c.44.61.66,1.41.66,2.41,0,.93-.21,1.74-.63,2.43-.42.68-1.03,1.21-1.83,1.58-.8.37-1.75.55-2.86.55-1.23,0-2.33-.2-3.31-.6Z"/>
    <path class="cls-1" d="m79.43,43.7c.77.49,1.36,1.2,1.78,2.14.42.94.63,2.07.63,3.39v9.46h-2.36v-9.17c0-1.42-.29-2.5-.88-3.23-.59-.74-1.38-1.11-2.38-1.11-.72,0-1.38.21-1.99.63-.61.42-1.08.98-1.44,1.68-.35.69-.53,1.42-.53,2.19v9.01h-2.36v-9.17c0-1.42-.29-2.5-.88-3.23-.59-.74-1.38-1.11-2.38-1.11-.72,0-1.38.21-1.99.63-.6.42-1.08.98-1.44,1.68-.35.69-.53,1.42-.53,2.19v9.01h-2.36v-15.41h2.36v2.51c.4-.76,1-1.42,1.79-1.98.79-.56,1.74-.84,2.86-.84.99,0,1.88.27,2.64.8.77.53,1.35,1.29,1.74,2.29.46-.89,1.11-1.62,1.96-2.21.84-.58,1.86-.88,3.06-.88,1.03,0,1.93.24,2.7.73Z"/>
    <path class="cls-1" d="m86.53,37.52h2.42v3.28h-2.42v-3.28Zm.03,5.76h2.36v15.41h-2.36v-15.41Z"/>
    <path class="cls-1" d="m97.87,57.55c-1.58-.96-2.83-2.27-3.74-3.93-.91-1.66-1.37-3.5-1.37-5.51s.46-3.84,1.37-5.5c.91-1.66,2.16-2.97,3.74-3.93,1.58-.96,3.35-1.45,5.3-1.45s3.7.48,5.29,1.45c1.59.96,2.84,2.28,3.76,3.93.92,1.66,1.37,3.49,1.37,5.5s-.46,3.84-1.37,5.51c-.92,1.66-2.17,2.98-3.76,3.93-1.59.96-3.35,1.44-5.29,1.44s-3.72-.48-5.3-1.44Zm9.32-1.95c1.2-.75,2.15-1.79,2.83-3.1.69-1.31,1.03-2.78,1.03-4.39s-.34-3.08-1.03-4.39c-.69-1.31-1.63-2.35-2.83-3.1-1.2-.75-2.54-1.13-4.02-1.13s-2.81.37-4.02,1.12c-1.2.75-2.14,1.78-2.83,3.09-.68,1.31-1.03,2.78-1.03,4.41s.34,3.09,1.03,4.41c.68,1.31,1.63,2.34,2.83,3.09,1.2.75,2.54,1.12,4.02,1.12s2.81-.38,4.02-1.13Zm-5.52,5.79h10.1v2.23h-10.1v-2.23Z"/>
    <path class="cls-1" d="m118.55,57.47c-1.06-1.01-1.59-2.56-1.59-4.66v-9.54h2.35v9.6c0,1.38.35,2.38,1.05,3,.7.62,1.6.94,2.7.94s2-.31,2.7-.94,1.05-1.63,1.05-3v-9.6h2.35v9.54c0,2.1-.53,3.65-1.59,4.66s-2.56,1.51-4.5,1.51-3.44-.5-4.5-1.51Z"/>
    <path class="cls-1" d="m135.72,54.35c.43.78,1.02,1.38,1.76,1.82.74.43,1.59.65,2.57.65s1.91-.23,2.7-.69,1.42-1.1,1.89-1.94l1.9,1.21c-.62,1.1-1.49,1.98-2.6,2.62s-2.41.97-3.9.97-2.84-.35-3.97-1.05-2-1.66-2.61-2.87c-.61-1.21-.92-2.58-.92-4.08s.3-2.85.89-4.08c.6-1.22,1.44-2.18,2.52-2.89,1.09-.7,2.33-1.06,3.74-1.06s2.66.35,3.72,1.06c1.06.7,1.88,1.66,2.45,2.88s.86,2.58.86,4.08v.69h-11.8c.09,1,.35,1.89.78,2.67Zm1.77-8.67c-.66.38-1.2.91-1.63,1.6-.43.69-.71,1.48-.85,2.38h9.3c-.11-.87-.36-1.64-.77-2.33-.4-.69-.93-1.23-1.59-1.62-.65-.39-1.4-.59-2.25-.59s-1.56.19-2.21.57Z"/>
  </g>
</svg>